<?xml version="1.0" encoding="UTF-8"?>
<svg version="1.1" xmlns="http://www.w3.org/2000/svg" width="83" height="109">
<path d="M0 0 C10.89 0 21.78 0 33 0 C33.495 11.385 33.495 11.385 34 23 C37.63 23.33 41.26 23.66 45 24 C47.475 24.99 47.475 24.99 50 26 C49.98839844 27.15371094 49.97679687 28.30742187 49.96484375 29.49609375 C49.87261518 43.35920066 50.38442685 57.14960411 51 71 C64.86 71.495 64.86 71.495 79 72 C79 82.89 79 93.78 79 105 C52.93 105 26.86 105 0 105 C0 70.35 0 35.7 0 0 Z M14 24 C11.32018013 27.59094995 10.6288372 30.18139372 10.65942383 34.61645508 C10.65965042 35.71721878 10.65987701 36.81798248 10.66011047 37.95210266 C10.67559433 39.1293541 10.69107819 40.30660553 10.70703125 41.51953125 C10.71127609 42.73323898 10.71552094 43.94694672 10.71989441 45.19743347 C10.73667092 49.0693491 10.77432267 52.94074199 10.8125 56.8125 C10.8275481 59.4394456 10.84123629 62.06639937 10.85351562 64.69335938 C10.88657119 71.12908424 10.93676117 77.56450477 11 84 C11.33 84 11.66 84 12 84 C12.00586624 83.33680756 12.01173248 82.67361511 12.01777649 81.99032593 C12.08177708 75.07937152 12.16621457 68.1688799 12.26245117 61.25830078 C12.29567781 58.6802379 12.32371673 56.10210267 12.34643555 53.52392578 C12.38002207 49.81511646 12.43234244 46.1069688 12.48828125 42.3984375 C12.49467117 41.24822113 12.5010611 40.09800476 12.50764465 38.91293335 C12.61328658 33.14538418 12.78371996 28.87496696 16 24 C15.34 24 14.68 24 14 24 Z M17 27 C15.96555372 30.10333883 15.87916576 32.22876249 15.88647461 35.48120117 C15.88655014 36.60213669 15.88662567 37.7230722 15.88670349 38.87797546 C15.89186478 40.08742325 15.89702606 41.29687103 15.90234375 42.54296875 C15.9037587 43.78170242 15.90517365 45.0204361 15.90663147 46.29670715 C15.91128398 49.58631537 15.9202661 52.8758746 15.93133545 56.16546631 C15.94157371 59.52371623 15.94613426 62.88197333 15.95117188 66.24023438 C15.96220855 72.82684212 15.97895233 79.41341705 16 86 C19.41270594 86.92846827 22.27666578 87.05584133 25.82421875 86.9140625 C26.93474609 86.87023437 28.04527344 86.82640625 29.18945312 86.78125 C30.34380859 86.7296875 31.49816406 86.678125 32.6875 86.625 C34.43643555 86.55925781 34.43643555 86.55925781 36.22070312 86.4921875 C41.47958716 86.76935799 41.47958716 86.76935799 46 85 C46.09893778 83.22553991 46.12799092 81.44713749 46.12939453 79.66992188 C46.13254669 78.53204224 46.13569885 77.3941626 46.13894653 76.22180176 C46.1369223 74.98329468 46.13489807 73.7447876 46.1328125 72.46875 C46.13376923 71.20736206 46.13472595 69.94597412 46.13571167 68.6463623 C46.13639375 65.97302862 46.13503529 63.29978563 46.13037109 60.62646484 C46.12467381 57.19293309 46.12795301 53.7594795 46.13394356 50.32595062 C46.13841762 47.06104757 46.13528883 43.79615407 46.1328125 40.53125 C46.13483673 39.29274292 46.13686096 38.05423584 46.13894653 36.77819824 C46.13579437 35.6403186 46.13264221 34.50243896 46.12939453 33.33007812 C46.12859894 32.32271606 46.12780334 31.315354 46.12698364 30.27746582 C46.25569724 28.03348206 46.25569724 28.03348206 45 27 C42.54207971 26.66656449 42.54207971 26.66656449 40 27 C39.01 28.485 39.01 28.485 38 30 C34.8125 30.3984375 34.8125 30.3984375 31 30.375 C29.741875 30.38273437 28.48375 30.39046875 27.1875 30.3984375 C26.135625 30.26695313 25.08375 30.13546875 24 30 C23.34 29.01 22.68 28.02 22 27 C19.41619823 26.74969023 19.41619823 26.74969023 17 27 Z M29 27 C33 28 33 28 33 28 Z M49 75 C48.97421875 75.74765625 48.9484375 76.4953125 48.921875 77.265625 C48.45283019 85.40994854 48.45283019 85.40994854 45.9375 88.6875 C45.298125 89.120625 44.65875 89.55375 44 90 C46.86724686 89.42655063 47.8614515 89.1385485 50 87 C50.24339551 84.10116917 50.24339551 84.10116917 50.125 80.875 C50.09792969 79.23144531 50.09792969 79.23144531 50.0703125 77.5546875 C50.04710937 76.71164063 50.02390625 75.86859375 50 75 C49.67 75 49.34 75 49 75 Z M12 84 C12.57344937 86.86724686 12.8614515 87.8614515 15 90 C15.99 89.67 16.98 89.34 18 89 C16.02 87.35 14.04 85.7 12 84 Z M19 90 C19 90.33 19 90.66 19 91 C26.92 91 34.84 91 43 91 C43 90.67 43 90.34 43 90 C35.08 90 27.16 90 19 90 Z " fill="#010100" transform="translate(2,2)"/>
<path d="M0 0 C0.67272949 0.00008057 1.34545898 0.00016113 2.03857422 0.00024414 C4.07541194 -0.00192939 6.11169666 -0.0200437 8.1484375 -0.0390625 C9.43621094 -0.04099609 10.72398438 -0.04292969 12.05078125 -0.04492188 C13.82437012 -0.05108521 13.82437012 -0.05108521 15.63378906 -0.05737305 C18.79425379 0.18151045 21.00254761 0.83428763 23.84765625 2.18554688 C23.83605469 3.29285156 23.82445312 4.40015625 23.8125 5.54101562 C23.70840373 20.77160106 24.25189464 35.96827414 24.84765625 51.18554688 C24.18765625 51.18554688 23.52765625 51.18554688 22.84765625 51.18554688 C22.8940625 51.92160156 22.94046875 52.65765625 22.98828125 53.41601562 C23.04242188 54.87974609 23.04242188 54.87974609 23.09765625 56.37304688 C23.1440625 57.33597656 23.19046875 58.29890625 23.23828125 59.29101562 C22.72666133 63.08211922 21.56846482 64.51795705 18.84765625 67.18554688 C15.73144531 67.75317383 15.73144531 67.75317383 12.11328125 67.67382812 C10.17001953 67.6496582 10.17001953 67.6496582 8.1875 67.625 C6.82420197 67.58322627 5.46092073 67.54090157 4.09765625 67.49804688 C2.71879001 67.47295598 1.33988028 67.45014416 -0.0390625 67.4296875 C-3.41125731 67.37073305 -6.78125116 67.28847858 -10.15234375 67.18554688 C-10.44109375 66.58742188 -10.72984375 65.98929687 -11.02734375 65.37304688 C-12.19976401 62.99226896 -12.19976401 62.99226896 -14.15234375 60.18554688 C-14.41304016 57.80838013 -14.41304016 57.80838013 -14.42700195 54.96728516 C-14.43653397 53.9025296 -14.44606598 52.83777405 -14.45588684 51.74075317 C-14.45497543 50.59073822 -14.45406403 49.44072327 -14.453125 48.25585938 C-14.45741013 47.07337616 -14.46169525 45.89089294 -14.46611023 44.6725769 C-14.47185761 42.16925701 -14.47235081 39.6659204 -14.46801758 37.16259766 C-14.46486202 33.33271739 -14.48829764 29.50361259 -14.51367188 25.67382812 C-14.51594525 23.24283952 -14.51664819 20.81184883 -14.515625 18.38085938 C-14.52483475 17.23489288 -14.53404449 16.08892639 -14.54353333 14.90823364 C-14.53730453 13.83717377 -14.53107574 12.76611389 -14.5246582 11.66259766 C-14.52528763 10.72344513 -14.52591705 9.7842926 -14.52656555 8.81668091 C-13.1842382 -0.62115291 -8.00392922 0.03619867 0 0 Z M-9.15234375 3.18554688 C-10.18679003 6.28888571 -10.27317799 8.41430936 -10.26586914 11.66674805 C-10.26579361 12.78768356 -10.26571808 13.90861908 -10.26564026 15.06352234 C-10.26047897 16.27297012 -10.25531769 17.48241791 -10.25 18.72851562 C-10.24858505 19.9672493 -10.2471701 21.20598297 -10.24571228 22.48225403 C-10.24105977 25.77186225 -10.23207765 29.06142148 -10.2210083 32.35101318 C-10.21077004 35.70926311 -10.20620949 39.06752021 -10.20117188 42.42578125 C-10.1901352 49.012389 -10.17339142 55.59896393 -10.15234375 62.18554688 C-6.73963781 63.11401515 -3.87567797 63.24138821 -0.328125 63.09960938 C0.78240234 63.05578125 1.89292969 63.01195312 3.03710938 62.96679688 C4.19146484 62.91523437 5.34582031 62.86367187 6.53515625 62.81054688 C8.2840918 62.74480469 8.2840918 62.74480469 10.06835938 62.67773438 C15.32724341 62.95490486 15.32724341 62.95490486 19.84765625 61.18554688 C19.94659403 59.41108678 19.97564717 57.63268436 19.97705078 55.85546875 C19.98020294 54.71758911 19.9833551 53.57970947 19.98660278 52.40734863 C19.98457855 51.16884155 19.98255432 49.93033447 19.98046875 48.65429688 C19.98142548 47.39290894 19.9823822 46.131521 19.98336792 44.83190918 C19.98405 42.1585755 19.98269154 39.48533251 19.97802734 36.81201172 C19.97233006 33.37847997 19.97560926 29.94502638 19.98159981 26.5114975 C19.98607387 23.24659445 19.98294508 19.98170094 19.98046875 16.71679688 C19.98249298 15.47828979 19.98451721 14.23978271 19.98660278 12.96374512 C19.98345062 11.82586548 19.98029846 10.68798584 19.97705078 9.515625 C19.97625519 8.50826294 19.97545959 7.50090088 19.97463989 6.4630127 C20.10335349 4.21902894 20.10335349 4.21902894 18.84765625 3.18554688 C16.38973596 2.85211137 16.38973596 2.85211137 13.84765625 3.18554688 C12.85765625 4.67054687 12.85765625 4.67054687 11.84765625 6.18554688 C8.66015625 6.58398438 8.66015625 6.58398438 4.84765625 6.56054688 C3.58953125 6.56828125 2.33140625 6.57601562 1.03515625 6.58398438 C-0.01671875 6.4525 -1.06859375 6.32101563 -2.15234375 6.18554688 C-2.81234375 5.19554687 -3.47234375 4.20554687 -4.15234375 3.18554688 C-6.73614552 2.9352371 -6.73614552 2.9352371 -9.15234375 3.18554688 Z M2.84765625 3.18554688 C6.84765625 4.18554688 6.84765625 4.18554688 6.84765625 4.18554688 Z " fill="#2E2707" transform="translate(28.15234375,25.814453125)"/>
<path d="M0 0 C0.33 0.66 0.66 1.32 1 2 C0.34 1.67 -0.32 1.34 -1 1 C-0.67 0.67 -0.34 0.34 0 0 Z " fill="#000000" transform="translate(42,31)"/>
<path d="M0 0 C2 1 2 1 2 1 Z " fill="#000000" transform="translate(45,30)"/>
<path d="M0 0 C2 1 2 1 2 1 Z " fill="#000000" transform="translate(47,25)"/>
<path d="" fill="#000000" transform="translate(0,0)"/>
<path d="" fill="#000000" transform="translate(0,0)"/>
<path d="" fill="#000000" transform="translate(0,0)"/>
<path d="" fill="#000000" transform="translate(0,0)"/>
<path d="" fill="#000000" transform="translate(0,0)"/>
<path d="" fill="#000000" transform="translate(0,0)"/>
<path d="" fill="#000000" transform="translate(0,0)"/>
<path d="" fill="#000000" transform="translate(0,0)"/>
<path d="" fill="#000000" transform="translate(0,0)"/>
<path d="" fill="#000000" transform="translate(0,0)"/>
<path d="" fill="#000000" transform="translate(0,0)"/>
<path d="" fill="#000000" transform="translate(0,0)"/>
<path d="" fill="#000000" transform="translate(0,0)"/>
</svg>
